#define back2_width 20
#define back2_height 23
static unsigned char back2_bits[] = {
  0xff, 0xff, 0x0f, 0xff, 0xff, 0x0f, 0xff, 0xff, 0x0f, 0xff, 0x7f, 0x00,
  0xff, 0x7f, 0x00, 0xff, 0x7f, 0x00, 0xff, 0x7f, 0x00, 0xff, 0x7f, 0x00,
  0xff, 0x7f, 0x00, 0x9f, 0x7f, 0x00, 0x8f, 0x7f, 0x00, 0x87, 0xff, 0x0f,
  0x03, 0x00, 0x00, 0x01, 0x00, 0x08, 0x00, 0x00, 0x0c, 0x01, 0x00, 0x0e,
  0x03, 0x00, 0x0f, 0x87, 0xff, 0x0f, 0x8f, 0xff, 0x0f, 0x9f, 0xff, 0x0f,
  0xff, 0xff, 0x0f, 0xff, 0xff, 0x0f, 0xff, 0xff, 0x0f, };
